<?xml version="1.0" encoding="UTF-8"?>
<!DOCTYPE svg PUBLIC "-//W3C//DTD SVG 1.1//EN" "http://www.w3.org/Graphics/SVG/1.1/DTD/svg11.dtd">
<svg version="1.2" width="101mm" height="57mm" viewBox="0 0 10100 5700" preserveAspectRatio="xMidYMid" fill-rule="evenodd" stroke-width="28.222" stroke-linejoin="round" xmlns="http://www.w3.org/2000/svg" xmlns:ooo="http://xml.openoffice.org/svg/export" xmlns:xlink="http://www.w3.org/1999/xlink" xmlns:presentation="http://sun.com/xmlns/staroffice/presentation" xmlns:smil="http://www.w3.org/2001/SMIL20/" xmlns:anim="urn:oasis:names:tc:opendocument:xmlns:animation:1.0" xml:space="preserve">
 <defs class="ClipPathGroup">
  <clipPath id="presentation_clip_path" clipPathUnits="userSpaceOnUse">
   <rect x="0" y="0" width="10100" height="5700"/>
  </clipPath>
  <clipPath id="presentation_clip_path_shrink" clipPathUnits="userSpaceOnUse">
   <rect x="10" y="5" width="10080" height="5689"/>
  </clipPath>
 </defs>
 <defs class="TextShapeIndex">
  <g ooo:slide="id1" ooo:id-list="id3 id4 id5 id6 id7 id8 id9 id10 id11 id12 id13"/>
 </defs>
 <defs class="EmbeddedBulletChars">
  <g id="bullet-char-template-57356" transform="scale(0.00048828125,-0.00048828125)">
   <path d="M 580,1141 L 1163,571 580,0 -4,571 580,1141 Z"/>
  </g>
  <g id="bullet-char-template-57354" transform="scale(0.00048828125,-0.00048828125)">
   <path d="M 8,1128 L 1137,1128 1137,0 8,0 8,1128 Z"/>
  </g>
  <g id="bullet-char-template-10146" transform="scale(0.00048828125,-0.00048828125)">
   <path d="M 174,0 L 602,739 174,1481 1456,739 174,0 Z M 1358,739 L 309,1346 659,739 1358,739 Z"/>
  </g>
  <g id="bullet-char-template-10132" transform="scale(0.00048828125,-0.00048828125)">
   <path d="M 2015,739 L 1276,0 717,0 1260,543 174,543 174,936 1260,936 717,1481 1274,1481 2015,739 Z"/>
  </g>
  <g id="bullet-char-template-10007" transform="scale(0.00048828125,-0.00048828125)">
   <path d="M 0,-2 C -7,14 -16,27 -25,37 L 356,567 C 262,823 215,952 215,954 215,979 228,992 255,992 264,992 276,990 289,987 310,991 331,999 354,1012 L 381,999 492,748 772,1049 836,1024 860,1049 C 881,1039 901,1025 922,1006 886,937 835,863 770,784 769,783 710,716 594,584 L 774,223 C 774,196 753,168 711,139 L 727,119 C 717,90 699,76 672,76 641,76 570,178 457,381 L 164,-76 C 142,-110 111,-127 72,-127 30,-127 9,-110 8,-76 1,-67 -2,-52 -2,-32 -2,-23 -1,-13 0,-2 Z"/>
  </g>
  <g id="bullet-char-template-10004" transform="scale(0.00048828125,-0.00048828125)">
   <path d="M 285,-33 C 182,-33 111,30 74,156 52,228 41,333 41,471 41,549 55,616 82,672 116,743 169,778 240,778 293,778 328,747 346,684 L 369,508 C 377,444 397,411 428,410 L 1163,1116 C 1174,1127 1196,1133 1229,1133 1271,1133 1292,1118 1292,1087 L 1292,965 C 1292,929 1282,901 1262,881 L 442,47 C 390,-6 338,-33 285,-33 Z"/>
  </g>
  <g id="bullet-char-template-9679" transform="scale(0.00048828125,-0.00048828125)">
   <path d="M 813,0 C 632,0 489,54 383,161 276,268 223,411 223,592 223,773 276,916 383,1023 489,1130 632,1184 813,1184 992,1184 1136,1130 1245,1023 1353,916 1407,772 1407,592 1407,412 1353,268 1245,161 1136,54 992,0 813,0 Z"/>
  </g>
  <g id="bullet-char-template-8226" transform="scale(0.00048828125,-0.00048828125)">
   <path d="M 346,457 C 273,457 209,483 155,535 101,586 74,649 74,723 74,796 101,859 155,911 209,963 273,989 346,989 419,989 480,963 531,910 582,859 608,796 608,723 608,648 583,586 532,535 482,483 420,457 346,457 Z"/>
  </g>
  <g id="bullet-char-template-8211" transform="scale(0.00048828125,-0.00048828125)">
   <path d="M -4,459 L 1135,459 1135,606 -4,606 -4,459 Z"/>
  </g>
  <g id="bullet-char-template-61548" transform="scale(0.00048828125,-0.00048828125)">
   <path d="M 173,740 C 173,903 231,1043 346,1159 462,1274 601,1332 765,1332 928,1332 1067,1274 1183,1159 1299,1043 1357,903 1357,740 1357,577 1299,437 1183,322 1067,206 928,148 765,148 601,148 462,206 346,322 231,437 173,577 173,740 Z"/>
  </g>
 </defs>
 <g>
  <g id="id2" class="Master_Slide">
   <g id="bg-id2" class="Background"/>
   <g id="bo-id2" class="BackgroundObjects"/>
  </g>
 </g>
 <g class="SlideGroup">
  <g>
   <g id="container-id1">
    <g id="id1" class="Slide" clip-path="url(#presentation_clip_path)">
     <g class="Page">
      <g class="com.sun.star.drawing.CustomShape">
       <g id="id3">
        <rect class="BoundingBox" stroke="none" fill="none" x="-1" y="500" width="503" height="502"/>
        <path fill="rgb(255,255,255)" stroke="none" d="M 501,751 C 501,794 489,838 467,876 445,914 414,945 376,967 338,989 294,1001 250,1001 207,1001 163,989 125,967 87,945 56,914 34,876 12,838 0,794 0,751 0,707 12,663 34,625 56,587 87,556 125,534 163,512 207,500 250,500 294,500 338,512 376,534 414,556 445,587 467,625 489,663 501,707 501,751 L 501,751 Z"/>
       </g>
      </g>
      <g class="com.sun.star.drawing.CustomShape">
       <g id="id4">
        <rect class="BoundingBox" stroke="none" fill="none" x="700" y="700" width="302" height="302"/>
        <path fill="rgb(255,255,255)" stroke="none" d="M 1001,851 C 1001,877 994,903 981,926 968,949 949,968 926,981 903,994 877,1001 851,1001 824,1001 798,994 775,981 752,968 733,949 720,926 707,903 700,877 700,851 700,824 707,798 720,775 733,752 752,733 775,720 798,707 824,700 851,700 877,700 903,707 926,720 949,733 968,752 981,775 994,798 1001,824 1001,851 L 1001,851 Z"/>
       </g>
      </g>
      <g class="com.sun.star.drawing.CustomShape">
       <g id="id5">
        <rect class="BoundingBox" stroke="none" fill="none" x="4900" y="5300" width="402" height="402"/>
        <path fill="rgb(255,255,255)" stroke="none" d="M 5301,5501 C 5301,5536 5292,5570 5274,5601 5257,5631 5231,5657 5201,5674 5170,5692 5136,5701 5101,5701 5065,5701 5031,5692 5000,5674 4970,5657 4944,5631 4927,5601 4909,5570 4900,5536 4900,5501 4900,5465 4909,5431 4927,5400 4944,5370 4970,5344 5000,5327 5031,5309 5065,5300 5101,5300 5136,5300 5170,5309 5201,5327 5231,5344 5257,5370 5274,5400 5292,5431 5301,5465 5301,5501 L 5301,5501 Z"/>
       </g>
      </g>
      <g class="com.sun.star.drawing.CustomShape">
       <g id="id6">
        <rect class="BoundingBox" stroke="none" fill="none" x="2400" y="900" width="402" height="402"/>
        <path fill="rgb(255,255,255)" stroke="none" d="M 2801,1101 C 2801,1136 2792,1170 2774,1201 2757,1231 2731,1257 2701,1274 2670,1292 2636,1301 2601,1301 2565,1301 2531,1292 2500,1274 2470,1257 2444,1231 2427,1201 2409,1170 2400,1136 2400,1101 2400,1065 2409,1031 2427,1000 2444,970 2470,944 2500,927 2531,909 2565,900 2601,900 2636,900 2670,909 2701,927 2731,944 2757,970 2774,1000 2792,1031 2801,1065 2801,1101 L 2801,1101 Z"/>
       </g>
      </g>
      <g class="com.sun.star.drawing.CustomShape">
       <g id="id7">
        <rect class="BoundingBox" stroke="none" fill="none" x="4200" y="1100" width="402" height="402"/>
        <path fill="rgb(255,255,255)" stroke="none" d="M 4601,1301 C 4601,1336 4592,1370 4574,1401 4557,1431 4531,1457 4501,1474 4470,1492 4436,1501 4401,1501 4365,1501 4331,1492 4300,1474 4270,1457 4244,1431 4227,1401 4209,1370 4200,1336 4200,1301 4200,1265 4209,1231 4227,1200 4244,1170 4270,1144 4300,1127 4331,1109 4365,1100 4401,1100 4436,1100 4470,1109 4501,1127 4531,1144 4557,1170 4574,1200 4592,1231 4601,1265 4601,1301 L 4601,1301 Z"/>
       </g>
      </g>
      <g class="com.sun.star.drawing.CustomShape">
       <g id="id8">
        <rect class="BoundingBox" stroke="none" fill="none" x="2000" y="3300" width="402" height="402"/>
        <path fill="rgb(255,255,255)" stroke="none" d="M 2401,3501 C 2401,3536 2392,3570 2374,3601 2357,3631 2331,3657 2301,3674 2270,3692 2236,3701 2201,3701 2165,3701 2131,3692 2100,3674 2070,3657 2044,3631 2027,3601 2009,3570 2000,3536 2000,3501 2000,3465 2009,3431 2027,3400 2044,3370 2070,3344 2100,3327 2131,3309 2165,3300 2201,3300 2236,3300 2270,3309 2301,3327 2331,3344 2357,3370 2374,3400 2392,3431 2401,3465 2401,3501 L 2401,3501 Z"/>
       </g>
      </g>
      <g class="com.sun.star.drawing.CustomShape">
       <g id="id9">
        <rect class="BoundingBox" stroke="none" fill="none" x="5700" y="4700" width="302" height="302"/>
        <path fill="rgb(255,255,255)" stroke="none" d="M 6001,4850 C 6001,4877 5994,4903 5981,4926 5968,4949 5949,4968 5926,4981 5903,4994 5877,5001 5851,5001 5824,5001 5798,4994 5775,4981 5752,4968 5733,4949 5720,4926 5707,4903 5700,4877 5700,4850 5700,4824 5707,4798 5720,4775 5733,4752 5752,4733 5775,4720 5798,4707 5824,4700 5851,4700 5877,4700 5903,4707 5926,4720 5949,4733 5968,4752 5981,4775 5994,4798 6001,4824 6001,4850 L 6001,4850 Z"/>
       </g>
      </g>
      <g class="com.sun.star.drawing.CustomShape">
       <g id="id10">
        <rect class="BoundingBox" stroke="none" fill="none" x="9200" y="100" width="302" height="303"/>
        <path fill="rgb(255,255,255)" stroke="none" d="M 9501,251 C 9501,277 9494,303 9481,326 9468,349 9449,368 9426,381 9403,394 9377,401 9351,401 9324,401 9298,394 9275,381 9252,368 9233,349 9220,326 9207,303 9200,277 9200,251 9200,224 9207,198 9220,175 9233,152 9252,133 9275,120 9298,107 9324,100 9351,100 9377,100 9403,107 9426,120 9449,133 9468,152 9481,175 9494,198 9501,224 9501,251 L 9501,251 Z"/>
       </g>
      </g>
      <g class="com.sun.star.drawing.CustomShape">
       <g id="id11">
        <rect class="BoundingBox" stroke="none" fill="none" x="9200" y="800" width="402" height="402"/>
        <path fill="rgb(255,255,255)" stroke="none" d="M 9601,1001 C 9601,1036 9592,1070 9574,1101 9557,1131 9531,1157 9501,1174 9470,1192 9436,1201 9401,1201 9365,1201 9331,1192 9300,1174 9270,1157 9244,1131 9227,1101 9209,1070 9200,1036 9200,1001 9200,965 9209,931 9227,900 9244,870 9270,844 9300,827 9331,809 9365,800 9401,800 9436,800 9470,809 9501,827 9531,844 9557,870 9574,900 9592,931 9601,965 9601,1001 L 9601,1001 Z"/>
       </g>
      </g>
      <g class="com.sun.star.drawing.CustomShape">
       <g id="id12">
        <rect class="BoundingBox" stroke="none" fill="none" x="9800" y="0" width="302" height="302"/>
        <path fill="rgb(255,255,255)" stroke="none" d="M 10101,151 C 10101,177 10094,203 10081,226 10068,249 10049,268 10026,281 10003,294 9977,301 9951,301 9924,301 9898,294 9875,281 9852,268 9833,249 9820,226 9807,203 9800,177 9800,151 9800,124 9807,98 9820,75 9833,52 9852,33 9875,20 9898,7 9924,0 9951,0 9977,0 10003,7 10026,20 10049,33 10068,52 10081,75 10094,98 10101,124 10101,150 L 10101,151 Z"/>
       </g>
      </g>
      <g class="com.sun.star.drawing.PolyPolygonShape">
       <g id="id13">
        <rect class="BoundingBox" stroke="none" fill="none" x="299" y="99" width="9703" height="5403"/>
        <path fill="none" stroke="rgb(255,255,255)" d="M 300,800 L 2200,3501 5100,5500 5900,4800 9400,1000 10000,100 9400,200 4400,1300 2600,1100 900,900 300,800 Z"/>
       </g>
      </g>
     </g>
    </g>
   </g>
  </g>
 </g>
</svg>